<svg width="301" height="300" viewBox="0 0 301 300" fill="none" xmlns="http://www.w3.org/2000/svg">
<path d="M300.5 150C300.5 232.843 233.343 300 150.5 300C67.6573 300 0.5 232.843 0.5 150C0.5 67.1573 67.6573 0 150.5 0C233.343 0 300.5 67.1573 300.5 150Z" fill="#6CD37F"/>
<path d="M108 77L35.5 150.5L108 224.5C113.413 211.078 114.968 204.245 109 194L66 150.5L108 107.5L132.5 131.5C144.5 143.5 163 130.5 161.5 129.5C160 128.5 108 77 108 77Z" fill="white" stroke="white"/>
<path d="M191.586 223.5L264.086 150L191.586 76C186.173 89.4217 184.618 96.2548 190.586 106.5L233.586 150L191.586 193L167.086 169C155.086 157 136.586 170 138.086 171C139.586 172 191.586 223.5 191.586 223.5Z" fill="white" stroke="white"/>
<path d="M123.5 150.069C123.5 158.354 116.56 165.069 108 165.069C99.4396 165.069 92.5 158.354 92.5 150.069C92.5 141.785 99.4396 135.069 108 135.069C116.56 135.069 123.5 141.785 123.5 150.069Z" fill="white"/>
<path d="M208 151C208 159.284 201.06 166 192.5 166C183.94 166 177 159.284 177 151C177 142.716 183.94 136 192.5 136C201.06 136 208 142.716 208 151Z" fill="white"/>
</svg>
